<svg width="127" height="40" viewBox="0 0 127 40" fill="none" xmlns="http://www.w3.org/2000/svg">
<path d="M16.043 27.3064C13.8667 26.498 11.6281 26.3737 9.57614 26.9333C8.14596 27.3064 6.77796 28.0526 5.53432 28.9853L4.66376 29.7315L4.41504 29.9802L4.97467 30.4777C5.03685 30.4777 5.03686 30.5399 5.09904 30.602C5.22341 30.7264 5.34778 30.7886 5.53432 30.9129L5.9074 31.1617L6.28049 30.8508C6.34268 30.7886 6.46704 30.6642 6.5914 30.602C7.71068 29.6693 8.95431 29.0475 10.2601 28.7366C11.939 28.3013 13.7423 28.3635 15.5456 29.0475C17.0379 29.6071 20.0849 30.2911 23.7536 28.7366L23.878 28.6744L24.0645 28.4879C24.0645 28.4257 24.1267 28.4257 24.1889 28.3635C24.4998 27.9904 24.8107 27.6173 25.0594 27.182L26.303 25.2544L24.3132 26.3737C21.3907 27.9904 18.7169 28.3013 16.043 27.3064Z" fill="#55B02E"/>
<path d="M7.52364 20.5908C9.20255 20.1556 11.0058 20.2178 12.8091 20.9018C14.7989 21.6479 19.8978 22.705 25.6186 17.5439L26.5513 16.6112L26.6135 16.549L26.8622 16.3003L26.7378 15.9894C26.6756 15.7407 26.5513 15.4298 26.4269 15.1189L26.116 14.2483L25.4942 14.8701C25.432 14.9945 25.3076 15.0567 25.1833 15.181C22.4473 17.9792 18.2189 20.8396 13.3687 19.0985C11.1924 18.2901 8.95382 18.1658 6.90182 18.7254C4.91201 19.285 3.17091 20.3421 1.55418 21.8345V21.7723L0.621456 22.7672C0.621456 22.8294 0.559286 22.8294 0.497104 22.8916L0.310547 23.0781L0.372732 23.3268C0.434914 23.6377 0.559274 23.9487 0.621456 24.2596L0.994551 25.2545L1.61637 24.4461C1.67855 24.3218 1.80291 24.2596 1.86509 24.1352C3.17091 22.9538 4.97419 21.2748 7.52364 20.5908Z" fill="#55B02E"/>
<path d="M1.49238 19.4715C2.92256 17.9792 4.53928 17.0464 6.28037 16.549C7.95928 16.1137 9.76255 16.1759 11.5658 16.8599C17.1622 18.9119 22.0124 15.5541 24.1266 13.7508L24.9349 12.9424L25.2458 12.6937L24.9971 12.3206C24.8106 12.1341 24.6862 11.8854 24.4997 11.6366L24.1266 11.1392L23.6913 11.5744C23.6291 11.6366 23.5047 11.761 23.4426 11.8232C20.8309 14.3104 16.7891 16.8599 12.1876 15.1188C10.0113 14.3104 7.77273 14.1861 5.72074 14.7457C4.41492 15.1188 3.17128 15.7406 1.92764 16.549L0.621818 17.6061C0.497455 17.7304 0.435273 17.7926 0.310909 17.917L0.186557 18.0413V18.2279C0.124375 18.6632 0.124367 19.0984 0.0621856 19.4715L0 21.0261L1.0571 19.9068C1.18146 19.7824 1.30583 19.5959 1.49238 19.4715Z" fill="#55B02E"/>
<path d="M17.8466 31.5348L17.7222 31.9079L17.8466 31.5348C17.66 31.4726 17.5357 31.4104 17.3491 31.3482C15.1728 30.5398 12.9342 30.4155 10.8822 30.9751C10.4469 31.0995 10.0117 31.2238 9.57639 31.4104L8.08401 32.0944L7.71094 32.2809L8.95457 32.7162C9.32766 32.8406 9.70075 32.9649 10.0738 33.0893L10.2604 33.1515L10.4469 33.0893C10.6335 33.0271 10.82 32.9028 11.0066 32.9028C11.1309 32.9028 11.2553 32.8406 11.3797 32.7784C12.872 32.4053 14.4887 32.4053 16.2298 32.9649C16.4164 33.0271 16.5408 33.0893 16.7273 33.1515L17.0382 33.2758L17.2247 33.2137C17.66 33.0893 18.1575 32.9649 18.5306 32.7784L20.2717 32.1566L18.4684 31.7213C18.2818 31.6591 18.0331 31.5969 17.8466 31.5348Z" fill="#55B02E"/>
<path d="M27.3597 18.6631L26.427 19.5958C26.3027 19.7202 26.1783 19.8445 26.0539 19.9689C23.5045 22.394 19.4005 25.0056 14.799 23.2645C12.6227 22.4562 10.3841 22.3318 8.33213 22.8915C6.40449 23.4511 4.66338 24.446 3.10884 25.9384L2.30048 26.8089L2.05176 27.1198L2.30048 27.4929C2.48703 27.7416 2.6114 27.9282 2.73576 28.1769L3.10884 28.7365L3.54412 28.1769C3.6063 28.1147 3.73066 27.9904 3.79284 27.9282C5.2852 26.3114 6.90193 25.3165 8.76739 24.8191C10.4463 24.3838 12.2496 24.446 14.0528 25.13C15.6074 25.6896 17.2241 25.8762 18.8408 25.6896C21.7012 25.3787 24.5616 23.762 26.6758 21.9587C26.8001 21.8344 26.9245 21.7722 27.0488 21.6478L27.2354 21.4613V21.2747C27.2354 20.9016 27.2976 20.4664 27.2976 20.0933L27.3597 18.6631Z" fill="#55B02E"/>
<path d="M3.73045 12.9425L3.54391 12.5694L3.73045 12.9425C4.10354 12.756 4.53883 12.6316 4.91192 12.5072C6.59083 12.0719 8.3941 12.1341 10.1974 12.8181C11.3788 13.2534 12.5603 13.4399 13.8661 13.4399C16.4777 13.4399 19.0894 12.5072 21.5145 10.704L22.4472 9.95776L22.7581 9.70904L22.1985 9.27376C22.0119 9.08721 21.7632 8.90067 21.5145 8.77631L21.1414 8.52759L20.8305 8.77631C20.7061 8.83849 20.6439 8.96285 20.5195 9.02503C17.2239 11.5123 13.9283 12.1963 10.8192 11.0149C8.58065 10.2065 6.34209 10.02 4.10355 10.704C3.917 10.7661 3.73045 10.8283 3.48173 10.8905L3.35738 10.9527L3.17082 11.1392C3.17082 11.2014 3.10865 11.2014 3.04647 11.2636C2.79774 11.6367 2.48682 11.9476 2.23809 12.3207L1.05664 14.124L2.98428 13.129C3.29519 13.129 3.54391 13.0047 3.73045 12.9425Z" fill="#55B02E"/>
<path d="M8.82967 8.71405L9.01621 8.77624C9.82457 9.08714 11.0682 9.39805 12.6228 9.39805C14.2395 9.39805 15.794 9.02496 17.3486 8.40314L19.2762 7.47041L17.9704 7.03515C17.5973 6.91079 17.2242 6.78642 16.7889 6.72424H16.6024L16.4159 6.78641C16.2293 6.84859 16.0428 6.97297 15.8562 7.03515C13.9908 7.71915 12.1253 7.84352 10.322 7.34606C10.1355 7.28388 9.94894 7.22169 9.7624 7.1595L9.57586 7.09732L9.3893 7.1595C9.01621 7.28387 8.64313 7.40824 8.27004 7.59478L6.83984 8.2166L8.33222 8.65186C8.45659 8.58968 8.64312 8.65187 8.82967 8.71405Z" fill="#55B02E"/>
<path d="M40.4761 30.5V18.992H37.7601V16.36H41.4561L40.4761 17.256V15.1C40.4761 13.3453 40.9241 12.02 41.8201 11.124C42.7348 10.228 44.0695 9.78 45.8241 9.78C46.2348 9.78 46.6641 9.808 47.1121 9.864C47.5788 9.92 47.9801 10.0227 48.3161 10.172V12.916C48.0735 12.8227 47.7841 12.748 47.4481 12.692C47.1121 12.636 46.7855 12.608 46.4681 12.608C45.9828 12.608 45.5441 12.7013 45.1521 12.888C44.7788 13.0747 44.4801 13.364 44.2561 13.756C44.0508 14.1293 43.9481 14.6333 43.9481 15.268V16.976L43.4441 16.36H47.6721V18.992H43.9761V30.5H40.4761ZM49.8281 30.5V9.892H53.3281V30.5H49.8281ZM63.4901 30.78C62.0341 30.78 60.7741 30.4813 59.7101 29.884C58.6461 29.2867 57.8155 28.4373 57.2181 27.336C56.6395 26.2347 56.3501 24.928 56.3501 23.416C56.3501 21.904 56.6395 20.6067 57.2181 19.524C57.8155 18.4227 58.6461 17.5733 59.7101 16.976C60.7741 16.3787 62.0341 16.08 63.4901 16.08C64.9461 16.08 66.2061 16.3787 67.2701 16.976C68.3528 17.5733 69.1835 18.4227 69.7621 19.524C70.3595 20.6067 70.6581 21.904 70.6581 23.416C70.6581 24.928 70.3595 26.2347 69.7621 27.336C69.1835 28.4373 68.3528 29.2867 67.2701 29.884C66.2061 30.4813 64.9461 30.78 63.4901 30.78ZM63.4901 28.092C64.5915 28.092 65.4688 27.7093 66.1221 26.944C66.7755 26.16 67.1021 24.984 67.1021 23.416C67.1021 21.848 66.7755 20.6813 66.1221 19.916C65.4688 19.1507 64.5915 18.768 63.4901 18.768C62.3888 18.768 61.5115 19.1507 60.8581 19.916C60.2048 20.6813 59.8781 21.848 59.8781 23.416C59.8781 24.984 60.2048 26.16 60.8581 26.944C61.5115 27.7093 62.3888 28.092 63.4901 28.092ZM77.323 30.5L71.807 16.36H75.419L79.395 27.364H78.667L82.699 16.36H85.191L89.195 27.364H88.551L92.499 16.36H95.915L90.399 30.5H87.319L83.091 19.244H84.575L80.431 30.5H77.323ZM96.3899 30.5V26.608H100.31V30.5H96.3899ZM109.105 30.78C107.873 30.78 106.791 30.4907 105.857 29.912C104.924 29.3147 104.196 28.4653 103.673 27.364C103.151 26.2627 102.889 24.9467 102.889 23.416C102.889 21.8853 103.151 20.5787 103.673 19.496C104.196 18.3947 104.924 17.5547 105.857 16.976C106.791 16.3787 107.873 16.08 109.105 16.08C110.3 16.08 111.345 16.3787 112.241 16.976C113.156 17.5547 113.763 18.3387 114.061 19.328H113.753L114.061 16.36H117.421C117.365 16.9387 117.309 17.5267 117.253 18.124C117.216 18.7213 117.197 19.3093 117.197 19.888V30.5H113.725L113.697 27.588H114.033C113.735 28.5587 113.128 29.3333 112.213 29.912C111.299 30.4907 110.263 30.78 109.105 30.78ZM110.085 28.092C111.187 28.092 112.073 27.7093 112.745 26.944C113.417 26.16 113.753 24.984 113.753 23.416C113.753 21.848 113.417 20.6813 112.745 19.916C112.073 19.1507 111.187 18.768 110.085 18.768C108.984 18.768 108.097 19.1507 107.425 19.916C106.753 20.6813 106.417 21.848 106.417 23.416C106.417 24.984 106.744 26.16 107.397 26.944C108.069 27.7093 108.965 28.092 110.085 28.092ZM121.008 30.5V16.36H124.508V30.5H121.008ZM120.812 13.7V10.284H124.704V13.7H120.812Z" fill="white"/>
</svg>
